<?xml version="1.0" encoding="UTF-8"?>
<svg version="1.1" xmlns="http://www.w3.org/2000/svg" width="141" height="84">
<path d="M0 0 C2.25 2.625 2.25 2.625 2.1953125 5.35546875 C1.0226156 9.41144934 -1.06781 12.2856244 -3.625 15.5625 C-4.62929173 16.88772879 -5.63318657 18.21325844 -6.63671875 19.5390625 C-7.15282715 20.21356445 -7.66893555 20.88806641 -8.20068359 21.58300781 C-10.18912336 24.20376266 -12.12066174 26.86348109 -14.05175781 29.52661133 C-18.30045531 35.38541248 -22.65357039 41.10928447 -27.2890625 46.671875 C-28.93713731 48.66139188 -28.93713731 48.66139188 -29.75 51.625 C-22.04630573 52.7069063 -15.84137202 53.10223647 -8.75 49.625 C-8.12351563 49.31820312 -7.49703125 49.01140625 -6.8515625 48.6953125 C-1.06761523 45.2350471 1.82628758 39.75116712 4.25 33.625 C5.70171358 27.58529891 6.23006435 21.35438943 6.875 15.1875 C7.13841553 12.7330558 7.40882528 10.28033734 7.70053101 7.8290863 C7.8801265 6.31624495 8.04362195 4.80137615 8.18838501 3.2848053 C8.58236674 -0.07010674 9.06434357 -2.13350291 11.14208984 -4.83618164 C13.25 -6.375 13.25 -6.375 16.25 -6.875 C19.9642798 -6.25595337 20.81507422 -5.17913775 23.25 -2.375 C24.57104492 -0.11108398 24.57104492 -0.11108398 25.73046875 2.37890625 C26.38728638 3.77133545 26.38728638 3.77133545 27.05737305 5.19189453 C27.74053589 6.67471924 27.74053589 6.67471924 28.4375 8.1875 C29.40605724 10.25920471 30.37481045 12.33081782 31.34375 14.40234375 C31.82714844 15.44245605 32.31054688 16.48256836 32.80859375 17.55419922 C34.16697117 20.44811371 35.55877025 23.32234554 36.96875 26.19140625 C37.38616455 27.04726318 37.8035791 27.90312012 38.23364258 28.78491211 C39.01842996 30.39188802 39.80963736 31.99574931 40.6081543 33.59594727 C42.45037881 37.40813403 43.77392118 40.27903085 43.25 44.625 C44.24 44.295 45.23 43.965 46.25 43.625 C47.30466899 41.10046188 48.17839859 38.66286989 49 36.0625 C51.24224549 29.33078235 53.78834337 22.85796844 56.70727539 16.39331055 C59.08023402 11.11135122 61.10292431 5.76643869 63.01171875 0.296875 C64.3745069 -2.64365212 65.7445202 -4.33332085 68.25 -6.375 C71.39389944 -6.82412849 73.30480125 -6.879106 76.125 -5.375 C77.92322931 -2.17814789 77.67551854 1.08181333 77.25 4.625 C76.26964387 7.72078843 74.91861307 10.58314667 73.5 13.5 C72.75517162 15.09703254 72.01166812 16.69468369 71.26953125 18.29296875 C70.91455566 19.04755371 70.55958008 19.80213867 70.19384766 20.57958984 C69.09666885 22.9572836 68.1208102 25.36615829 67.1875 27.8125 C65.58272238 31.94515741 63.71474571 35.93563421 61.8125 39.9375 C58.59450557 46.71168023 55.82843913 53.57885067 53.25 60.625 C52.59 60.625 51.93 60.625 51.25 60.625 C50.7859375 61.5840625 50.7859375 61.5840625 50.3125 62.5625 C49.25 64.625 49.25 64.625 48.25 65.625 C44.91980698 65.625 42.30412398 65.61744651 39.78125 63.2421875 C36.90366949 59.32937986 35.06512903 55.12336325 33.25 50.625 C32.19707449 48.51146339 31.11639718 46.41524781 30.01953125 44.32421875 C29.25 42.625 29.25 42.625 29.25 40.625 C28.59 40.625 27.93 40.625 27.25 40.625 C26.85167969 39.70267578 26.85167969 39.70267578 26.4453125 38.76171875 C26.09210938 37.95347656 25.73890625 37.14523438 25.375 36.3125 C25.02695313 35.51199219 24.67890625 34.71148437 24.3203125 33.88671875 C23.22428106 31.4288166 23.22428106 31.4288166 21.25 28.625 C20.8375 29.759375 20.425 30.89375 20 32.0625 C19.41813314 33.583895 18.83472963 35.10470297 18.25 36.625 C17.86714844 37.68847656 17.86714844 37.68847656 17.4765625 38.7734375 C13.09292764 49.91350041 4.98532986 58.42093589 -5.75 63.625 C-8.75850375 64.73629423 -11.56240981 65.31796417 -14.75 65.625 C-15.51699219 65.70621094 -16.28398438 65.78742188 -17.07421875 65.87109375 C-27.87787712 66.4452012 -38.52531716 62.56206126 -46.75 55.625 C-53.71242523 49.32698116 -57.16875895 42.28161393 -58.12890625 32.9375 C-58.46942278 22.04097117 -56.64452073 14.73630523 -49.625 6.375 C-36.39606189 -7.44044275 -16.32860209 -11.6256637 0 0 Z " fill="#58947C" transform="translate(60.75,15.375)"/>
<path d="M0 0 C2.9375 0.4375 2.9375 0.4375 4.8125 1.4375 C6.61072931 4.63435211 6.36301854 7.89431333 5.9375 11.4375 C4.95714387 14.53328843 3.60611307 17.39564667 2.1875 20.3125 C1.44267162 21.90953254 0.69916812 23.50718369 -0.04296875 25.10546875 C-0.39794434 25.86005371 -0.75291992 26.61463867 -1.11865234 27.39208984 C-2.21583115 29.7697836 -3.1916898 32.17865829 -4.125 34.625 C-5.72977762 38.75765741 -7.59775429 42.74813421 -9.5 46.75 C-12.71799443 53.52418023 -15.48406087 60.39135067 -18.0625 67.4375 C-18.7225 67.4375 -19.3825 67.4375 -20.0625 67.4375 C-20.371875 68.076875 -20.68125 68.71625 -21 69.375 C-22.0625 71.4375 -22.0625 71.4375 -23.0625 72.4375 C-26.39269302 72.4375 -29.00837602 72.42994651 -31.53125 70.0546875 C-34.40883051 66.14187986 -36.24737097 61.93586325 -38.0625 57.4375 C-39.11542551 55.32396339 -40.19610282 53.22774781 -41.29296875 51.13671875 C-42.0625 49.4375 -42.0625 49.4375 -42.0625 47.4375 C-42.7225 47.4375 -43.3825 47.4375 -44.0625 47.4375 C-44.31644531 46.85742188 -44.57039063 46.27734375 -44.83203125 45.6796875 C-45.34830078 44.50792969 -45.34830078 44.50792969 -45.875 43.3125 C-46.2359375 42.48234375 -46.596875 41.6521875 -46.96875 40.796875 C-48.06958724 38.29024149 -48.06958724 38.29024149 -49.875 35.5625 C-51.66719127 30.84620718 -50.96485761 26.34198071 -50.0625 21.4375 C-49.7325 21.1075 -49.4025 20.7775 -49.0625 20.4375 C-48.82886119 18.58858054 -48.64946365 16.73261969 -48.5 14.875 C-48.41621094 13.86308594 -48.33242187 12.85117187 -48.24609375 11.80859375 C-48.18550781 11.02613281 -48.12492187 10.24367188 -48.0625 9.4375 C-45.0625 10.4375 -45.0625 10.4375 -43.16137695 13.77636719 C-42.44658177 15.25698487 -41.74385383 16.74346545 -41.05078125 18.234375 C-40.49114937 19.41305145 -40.49114937 19.41305145 -39.92021179 20.61553955 C-39.1327434 22.28102173 -38.35047439 23.94897061 -37.57299805 25.61914062 C-36.38314094 28.17004683 -35.17241964 30.71024031 -33.95898438 33.25 C-33.19663731 34.86918994 -32.43552863 36.48896362 -31.67578125 38.109375 C-31.31333817 38.86788757 -30.95089508 39.62640015 -30.57746887 40.40789795 C-28.81957546 44.22033881 -27.57191779 47.13734807 -28.0625 51.4375 C-26.5775 50.9425 -26.5775 50.9425 -25.0625 50.4375 C-24.00783101 47.91296188 -23.13410141 45.47536989 -22.3125 42.875 C-20.07025451 36.14328235 -17.52415663 29.67046844 -14.60522461 23.20581055 C-12.23226598 17.92385122 -10.20957569 12.57893869 -8.30078125 7.109375 C-6.38421235 2.97393927 -4.59401042 0.6562872 0 0 Z " fill="#318192" transform="translate(132.0625,8.5625)"/>
<path d="M0 0 C-1.30883837 2.77026646 -2.81145756 5.15130394 -4.59765625 7.6328125 C-7.57764588 12.35742671 -7.65397343 16.40798487 -7.4375 21.875 C-7.43169922 22.72835937 -7.42589844 23.58171875 -7.41992188 24.4609375 C-7.55870027 29.24132718 -7.55870027 29.24132718 -5 33 C-5.0825 34.19625 -5.165 35.3925 -5.25 36.625 C-5.41759444 42.03731472 -2.50421975 45.15473697 1 49 C1.99084725 50.00906973 2.98791674 51.01223106 4 52 C-1.52327916 52.84973526 -4.5884753 50.81819453 -8.88671875 47.67578125 C-15.83542285 42.16562588 -16.98315251 37.11883121 -18.6171875 28.65625 C-19.41540443 21.03246378 -16.82622601 15.43452657 -13 9 C-9.89386923 5.33635857 -5.1135348 0 0 0 Z " fill="#739158" transform="translate(25,25)"/>
<path d="M0 0 C1.8871875 0.0309375 1.8871875 0.0309375 3.8125 0.0625 C3.8125 4.25617102 3.62404129 4.81672639 1.28515625 7.96875 C0.7439917 8.70754395 0.20282715 9.44633789 -0.35473633 10.20751953 C-0.93892334 10.98466309 -1.52311035 11.76180664 -2.125 12.5625 C-2.71240967 13.35897949 -3.29981934 14.15545898 -3.9050293 14.97607422 C-5.65623054 17.34555721 -7.42016341 19.70503725 -9.1875 22.0625 C-10.14352828 23.34613145 -11.0992859 24.62996455 -12.0546875 25.9140625 C-14.08716638 28.63919136 -16.13246847 31.35431891 -18.1875 34.0625 C-20.1875 33.0625 -20.1875 33.0625 -21.1875 30.0625 C-21.96493698 21.85512729 -22.39228391 14.60147974 -17.04296875 7.8671875 C-12.22143527 3.17761178 -6.84874858 -0.11227457 0 0 Z " transform="translate(38.1875,21.9375)"/>
<path d="M0 0 C-3.20070834 1.07236008 -6.13471454 1.00822388 -9.48242188 0.88305664 C-19.41800996 0.54603963 -27.51248541 1.78393294 -35.375 8.375 C-41.79627423 14.53364543 -47.74501717 21.26845337 -48.09765625 30.578125 C-48.08605469 31.45984375 -48.07445312 32.3415625 -48.0625 33.25 C-48.05347656 34.14203125 -48.04445313 35.0340625 -48.03515625 35.953125 C-48.02355469 36.62859375 -48.01195312 37.3040625 -48 38 C-47.34 38.33 -46.68 38.66 -46 39 C-45.33203125 41.14453125 -45.33203125 41.14453125 -44.8125 43.8125 C-44.63332031 44.68519531 -44.45414063 45.55789062 -44.26953125 46.45703125 C-44.00280051 48.97357778 -44.21666893 50.61667355 -45 53 C-45.6509259 51.75264433 -46.29551669 50.50198168 -46.9375 49.25 C-47.29714844 48.55390625 -47.65679687 47.8578125 -48.02734375 47.140625 C-51.52434001 39.4444244 -51.32886879 28.59679987 -48.5625 20.6875 C-43.78662817 10.61627554 -35.23656632 3.33346299 -25.01171875 -0.8046875 C-16.95962719 -3.23865307 -7.85301323 -2.85564118 0 0 Z " fill="#92B584" transform="translate(53,11)"/>
<path d="M0 0 C1 3 1 3 0.2578125 4.90234375 C-0.11601562 5.57394531 -0.48984375 6.24554688 -0.875 6.9375 C-3.39272104 11.5063714 -4.13123556 15.02609781 -4.0625 20.25 C-4.05347656 21.14203125 -4.04445313 22.0340625 -4.03515625 22.953125 C-4.02355469 23.62859375 -4.01195312 24.3040625 -4 25 C-3.34 25.33 -2.68 25.66 -2 26 C-1.33203125 28.14453125 -1.33203125 28.14453125 -0.8125 30.8125 C-0.63332031 31.68519531 -0.45414063 32.55789062 -0.26953125 33.45703125 C-0.00280051 35.97357778 -0.21666893 37.61667355 -1 40 C-1.6509259 38.75264433 -2.29551669 37.50198168 -2.9375 36.25 C-3.29714844 35.55390625 -3.65679687 34.8578125 -4.02734375 34.140625 C-7.28937065 26.96154572 -7.1782106 17.43364557 -5.17578125 9.8984375 C-3.74545067 6.29336637 -2.15406633 3.23109949 0 0 Z " fill="#AFC773" transform="translate(9,24)"/>
<path d="M0 0 C0.66 0.33 1.32 0.66 2 1 C2.484375 3.984375 2.484375 3.984375 2.75 7.75 C2.84796875 8.98234375 2.9459375 10.2146875 3.046875 11.484375 C3.00050524 14.96210703 2.67334931 16.97927852 1 20 C0.01 20.66 -0.98 21.32 -2 22 C-2.02688151 20.35425434 -2.04634123 18.70838587 -2.0625 17.0625 C-2.07410156 16.14597656 -2.08570312 15.22945312 -2.09765625 14.28515625 C-2 12 -2 12 -1 11 C-0.76636119 9.15108054 -0.58696365 7.29511969 -0.4375 5.4375 C-0.35371094 4.42558594 -0.26992187 3.41367187 -0.18359375 2.37109375 C-0.12300781 1.58863281 -0.06242187 0.80617188 0 0 Z " fill="#215A66" transform="translate(84,18)"/>
<path d="M0 0 C0.66 0.99 1.32 1.98 2 3 C1.113125 2.896875 0.22625 2.79375 -0.6875 2.6875 C-4.14908558 2.70979524 -4.14908558 2.70979524 -6.75 5.1875 C-8.84730164 7.80912704 -9.87459947 9.88350622 -11 13 C-11.99 13.495 -11.99 13.495 -13 14 C-9.12354163 -1.38836503 -9.12354163 -1.38836503 0 0 Z " fill="#60A0AE" transform="translate(135,9)"/>
<path d="M0 0 C0.99 0.66 1.98 1.32 3 2 C3 2.66 3 3.32 3 4 C0.98177083 3.67447917 -1.03645833 3.34895833 -3.0546875 3.0234375 C-3.69664063 3.01570312 -4.33859375 3.00796875 -5 3 C-7.19797403 5.19797403 -7.45897517 6.17546145 -8.125 9.125 C-8.41375 10.40375 -8.7025 11.6825 -9 13 C-9.33 13 -9.66 13 -10 13 C-10.61741425 4.97361478 -10.61741425 4.97361478 -8.375 1.4375 C-5.33244416 -0.40404695 -3.502304 -0.44710264 0 0 Z " fill="#5EA1A8" transform="translate(80,9)"/>
<path d="M0 0 C0.99 0.33 1.98 0.66 3 1 C3.36504603 2.58086048 3.71660506 4.16483907 4.0625 5.75 C4.25972656 6.63171875 4.45695313 7.5134375 4.66015625 8.421875 C4.99825872 10.98679028 4.81158635 12.57091639 4 15 C0.43122553 10.34507678 0.31824005 5.65150436 0 0 Z " fill="#97B269" transform="translate(4,49)"/>
<path d="M0 0 C0.66 0.99 1.32 1.98 2 3 C-3.14285714 9.57142857 -3.14285714 9.57142857 -7 11 C-5.22054913 6.95579349 -2.60470327 3.53921513 0 0 Z " fill="#83AE91" transform="translate(42,25)"/>
<path d="M0 0 C0.66 0.33 1.32 0.66 2 1 C-0.97 3.97 -3.94 6.94 -7 10 C-7 6.04435836 -5.59478606 4.89133304 -3 2 C-2.01 1.34 -1.02 0.68 0 0 Z " fill="#E4EAE2" transform="translate(27,25)"/>
</svg>
